<svg width="32" height="32" viewBox="0 0 32 32" fill="none" xmlns="http://www.w3.org/2000/svg">
<path d="M2.155 14.901L4.644 6.176C5.011 4.895 6.196 4 7.527 4H21C21.553 4 22 4.448 22 5L22 19C22 19.215 21.931 19.425 21.802 19.597L16.41 26.837C15.812 27.586 14.95 28 14.026 28C12.357 28 11 26.643 11 24.974L11 20H5.998C4.733 20 3.571 19.421 2.81 18.411C2.046 17.399 1.808 16.12 2.155 14.901Z" fill="white"/>
<path d="M25 20H29C29.553 20 30 19.552 30 19L30 5C30 4.448 29.553 4 29 4H25C24.447 4 24 4.448 24 5V19C24 19.552 24.447 20 25 20ZM27 6.5C27.828 6.5 28.5 7.172 28.5 8C28.5 8.828 27.828 9.5 27 9.5C26.172 9.5 25.5 8.828 25.5 8C25.5 7.172 26.172 6.5 27 6.5Z" fill="white"/>
</svg>
