<svg width="20" height="25" viewBox="0 0 20 25" fill="none" xmlns="http://www.w3.org/2000/svg">
<path d="M16.5571 8.57143H14.2857V1.42857C14.2857 0.642857 13.6429 0 12.8571 0H7.14286C6.35714 0 5.71429 0.642857 5.71429 1.42857V8.57143H3.44286C2.17143 8.57143 1.52857 10.1143 2.42857 11.0143L8.98571 17.5714C9.54286 18.1286 10.4429 18.1286 11 17.5714L17.5571 11.0143C18.4571 10.1143 17.8286 8.57143 16.5571 8.57143ZM0 22.8571C0 23.6429 0.642857 24.2857 1.42857 24.2857H18.5714C19.3571 24.2857 20 23.6429 20 22.8571C20 22.0714 19.3571 21.4286 18.5714 21.4286H1.42857C0.642857 21.4286 0 22.0714 0 22.8571Z" fill="white"/>
</svg>
