<svg width="22" height="19" viewBox="0 0 22 19" fill="none" xmlns="http://www.w3.org/2000/svg">
<path d="M10.0459 5.73172C10.5469 5.63803 10.932 5.21435 10.932 4.70463V2.18807C10.932 1.84674 11.0626 1.5054 11.3226 1.24407C11.5826 0.984069 11.924 0.854736 12.2653 0.854736C12.6066 0.854736 12.948 0.984069 13.208 1.24407L20.8769 8.80945C21.2739 9.20106 21.2739 9.84172 20.8769 10.2333L13.208 17.7974C12.948 18.0574 12.6066 18.1881 12.2653 18.1881C11.924 18.1881 11.5826 18.0574 11.3226 17.7974C11.0626 17.5374 10.932 17.1947 10.932 16.8547V14.5611C10.932 13.9991 10.4688 13.5446 9.90789 13.5785C6.84912 13.7636 3.64485 14.5449 1.0487 17.7747C0.800872 18.083 0.265299 17.917 0.265299 17.5214V17.5214C0.265299 11.6517 4.47873 6.77277 10.0459 5.73172Z" fill="white"/>
</svg>
